ModelForces
version=1
nRows=4
nColumns=155
inDegrees=no

This file contains the forces exerted on a model during a simulation.

A force is a generalized force, meaning that it can be either a force (N) or a torque (Nm).

Units are S.I. units (second, meters, Newtons, ...)
Angles are in degrees.

endheader
time	glut_med1_r	glut_med2_r	glut_med3_r	glut_min1_r	glut_min2_r	glut_min3_r	semimem_r	semiten_r	bifemlh_r	bifemsh_r	sar_r	add_long_r	add_brev_r	add_mag1_r	add_mag2_r	add_mag3_r	tfl_r	pect_r	grac_r	glut_max1_r	glut_max2_r	glut_max3_r	iliacus_r	psoas_r	quad_fem_r	gem_r	peri_r	rect_fem_r	vas_med_r	vas_int_r	vas_lat_r	med_gas_r	lat_gas_r	soleus_r	tib_post_r	flex_dig_r	flex_hal_r	tib_ant_r	per_brev_r	per_long_r	per_tert_r	ext_dig_r	ext_hal_r	glut_med1_l	glut_med2_l	glut_med3_l	glut_min1_l	glut_min2_l	glut_min3_l	semimem_l	semiten_l	bifemlh_l	bifemsh_l	sar_l	add_long_l	add_brev_l	add_mag1_l	add_mag2_l	add_mag3_l	tfl_l	pect_l	grac_l	glut_max1_l	glut_max2_l	glut_max3_l	iliacus_l	psoas_l	quad_fem_l	gem_l	peri_l	rect_fem_l	vas_med_l	vas_int_l	vas_lat_l	med_gas_l	lat_gas_l	soleus_l	tib_post_l	flex_dig_l	flex_hal_l	tib_ant_l	per_brev_l	per_long_l	per_tert_l	ext_dig_l	ext_hal_l	ercspn_r	ercspn_l	intobl_r	intobl_l	extobl_r	extobl_l	femur_lat_meniscii_r.femur_lat_r.force.X	femur_lat_meniscii_r.femur_lat_r.force.Y	femur_lat_meniscii_r.femur_lat_r.force.Z	femur_lat_meniscii_r.femur_lat_r.torque.X	femur_lat_meniscii_r.femur_lat_r.torque.Y	femur_lat_meniscii_r.femur_lat_r.torque.Z	femur_lat_meniscii_r.meniscus_lat_r.force.X	femur_lat_meniscii_r.meniscus_lat_r.force.Y	femur_lat_meniscii_r.meniscus_lat_r.force.Z	femur_lat_meniscii_r.meniscus_lat_r.torque.X	femur_lat_meniscii_r.meniscus_lat_r.torque.Y	femur_lat_meniscii_r.meniscus_lat_r.torque.Z	femur_med_meniscii_r.femur_med_r.force.X	femur_med_meniscii_r.femur_med_r.force.Y	femur_med_meniscii_r.femur_med_r.force.Z	femur_med_meniscii_r.femur_med_r.torque.X	femur_med_meniscii_r.femur_med_r.torque.Y	femur_med_meniscii_r.femur_med_r.torque.Z	femur_med_meniscii_r.meniscus_med_r.force.X	femur_med_meniscii_r.meniscus_med_r.force.Y	femur_med_meniscii_r.meniscus_med_r.force.Z	femur_med_meniscii_r.meniscus_med_r.torque.X	femur_med_meniscii_r.meniscus_med_r.torque.Y	femur_med_meniscii_r.meniscus_med_r.torque.Z	femur_med_tibia_r.tibia_upper_r.force.X	femur_med_tibia_r.tibia_upper_r.force.Y	femur_med_tibia_r.tibia_upper_r.force.Z	femur_med_tibia_r.tibia_upper_r.torque.X	femur_med_tibia_r.tibia_upper_r.torque.Y	femur_med_tibia_r.tibia_upper_r.torque.Z	femur_med_tibia_r.femur_med_r.force.X	femur_med_tibia_r.femur_med_r.force.Y	femur_med_tibia_r.femur_med_r.force.Z	femur_med_tibia_r.femur_med_r.torque.X	femur_med_tibia_r.femur_med_r.torque.Y	femur_med_tibia_r.femur_med_r.torque.Z	femur_lat_tibia_r.tibia_upper_r.force.X	femur_lat_tibia_r.tibia_upper_r.force.Y	femur_lat_tibia_r.tibia_upper_r.force.Z	femur_lat_tibia_r.tibia_upper_r.torque.X	femur_lat_tibia_r.tibia_upper_r.torque.Y	femur_lat_tibia_r.tibia_upper_r.torque.Z	femur_lat_tibia_r.femur_lat_r.force.X	femur_lat_tibia_r.femur_lat_r.force.Y	femur_lat_tibia_r.femur_lat_r.force.Z	femur_lat_tibia_r.femur_lat_r.torque.X	femur_lat_tibia_r.femur_lat_r.torque.Y	femur_lat_tibia_r.femur_lat_r.torque.Z	aACL_R	pACL_R	aPCL_R	pPCL_R	aMCL_R	mMCL_R	pMCL_R	aLCL_R	mLCL_R	pLCL_R	aPCL_L	pPCL_L	aMCL_L	aLCL_L
      0.20642561	      9.80483831	      7.21157249	      7.74259738	      3.34995618	      3.92927092	      4.14539930	      0.00000000	    162.94871944	    177.89294693	    336.09517796	    122.79401330	      7.16512585	      5.20618489	      3.70933076	      3.13627107	      5.22239729	      3.53032687	      2.82485160	     92.76305539	      4.65429513	      7.07784463	      5.30620995	     25.46394923	     16.15566378	      4.59242994	      3.31323550	      5.62126591	    100.01940544	     40.56973388	     31.26373789	     55.04071897	      0.00000000	      0.00000000	      0.00000000	      0.00000000	      0.00000000	      0.00000000	     34.90934826	      2.02285821	      4.35906435	     22.30264117	     49.07421092	     12.26580740	      9.80483831	      7.21157249	      7.74259738	      3.34995618	      3.92927092	      4.14539930	     10.51816176	      5.29219001	     10.36670741	      9.13926364	      1.91265890	      7.16512585	      5.20618489	      3.70933076	      3.13627107	      5.22239729	      4.86174634	      2.82485160	      1.96962653	      4.65429513	      7.07784463	      5.30620995	     25.46394923	     16.15566378	      4.59242994	      3.31323550	      5.62126591	     14.34816302	      0.00000000	      0.00000000	      0.00000000	     19.48065453	      9.10488781	     43.43367041	     47.47436543	      4.27247194	      3.72385506	     11.23904905	      5.95130224	     15.96027544	      2.49899399	      7.91409456	      2.53353447	     31.52209666	     31.52209666	     11.57720269	     11.57720269	     29.12298997	     29.12298997	     99.93575663	     61.59354790	      4.41301619	     -3.16586614	      2.31444491	     39.68829619	    -99.93575663	    -61.59354790	     -4.41301619	      1.59287553	     -2.70101381	      1.32858402	      0.17540827	     -0.00073085	     -0.08602726	      0.03421685	     -0.00276793	      0.06980155	     -0.17540827	      0.00073085	      0.08602726	     -0.00033573	      0.00461018	     -0.00073411	   -904.65074191	   -385.86266413	    318.94769452	     -8.78682914	     22.04945327	      1.96787441	    904.65074191	    385.86266413	   -318.94769452	    135.44355237	    -15.90111338	    364.71454860	   -336.57998722	   -157.83174075	    -91.74462501	      5.15209757	    -11.62091582	      1.09233484	    336.57998722	    157.83174075	     91.74462501	    -40.86388326	      8.25226262	    135.71734494	      0.00000000	      0.00000000	    950.34636674	    597.37539763	     25.55845066	     10.22184152	      0.00000000	      0.00000000	      0.00000000	      0.00000000	      0.00000000	      0.00000000	      0.00000001	      0.00000000
      0.20721303	      9.78165808	      7.19572815	      7.72537625	      3.34290533	      3.92158796	      4.13559430	      0.00000000	    163.38781166	    178.59256343	    336.84444485	    122.82084904	      7.14919815	      5.19532895	      3.70124864	      3.12925526	      5.20967444	      3.51543361	      2.81886495	     92.85630739	      4.64404713	      7.06221961	      5.29429753	     25.43494326	     16.12266570	      4.58255131	      3.30847811	      5.60886779	    108.66819247	     40.77918401	     15.82826810	     55.26415038	      0.00000000	      0.00000000	      0.00000000	      0.00000000	      0.00000000	      0.00000000	     34.81885376	      1.96898234	      4.30634090	     22.13079934	     48.67014439	     12.14482033	      9.78165808	      7.19572815	      7.72537625	      3.34290533	      3.92158796	      4.13559430	     10.53858027	      5.27974581	     10.33981477	      9.11958585	      1.90865201	      7.14919815	      5.19532895	      3.70124864	      3.12925526	      5.20967444	      4.85387337	      2.81886495	      1.96542741	      4.64404713	      7.06221961	      5.29429753	     25.43494326	     16.12266570	      4.58255131	      3.30847811	      5.60886779	     14.31070150	      0.00000000	      0.00000000	      0.00000000	     19.44299329	      9.08612720	     43.31872256	     47.42373079	      4.24865180	      3.70208964	     11.21062606	      5.93515789	     15.92714108	      2.49390277	      7.90317760	      2.53040323	     31.45559911	     31.45559911	     11.55070600	     11.55070600	     29.09909634	     29.09909634	     99.91664343	     61.91267317	      5.09462948	     -3.44099063	      2.32418666	     39.66979557	    -99.91664343	    -61.91267317	     -5.09462948	      1.60083355	     -2.73149936	      1.36952602	      0.12310772	     -0.00212615	     -0.06865089	      0.02729145	     -0.00192531	      0.04900158	     -0.12310772	      0.00212615	      0.06865089	     -0.00024684	      0.00344379	     -0.00055105	   -908.85420617	   -385.78735949	    320.14505891	     -8.69717104	     22.13190231	      2.19758113	    908.85420617	    385.78735949	   -320.14505891	    135.88546442	    -15.95502789	    366.31841561	   -337.93189608	   -157.17367502	    -92.66134717	      5.12846564	    -11.70445960	      1.15262745	    337.93189608	    157.17367502	     92.66134717	    -41.21497046	      8.29298125	    136.23988813	      0.00000000	      0.00000000	    956.65901165	    602.58311434	     24.71514126	      9.77869203	      0.00000000	      0.00000000	      0.00000000	      0.00000000	      0.00000000	      0.00000000	      0.00000001	      0.00000000
      0.20780535	      9.76437830	      7.18391805	      7.71254018	      3.33764939	      3.91586114	      4.12828616	      0.00000000	    163.67068117	    179.01595247	    336.95351637	    122.78421904	      7.13732617	      5.18723641	      3.69522245	      3.12402603	      5.20019157	      3.50445320	      2.81440237	     92.88240481	      4.63640868	      7.05057333	      5.28541862	     25.41332453	     16.09807288	      4.57518772	      3.30493266	      5.59956840	    115.83005115	     40.88498310	     25.06115011	     55.36599284	      0.00000000	      0.00000000	      0.00000000	      0.00000000	      0.00000000	      0.00000000	     34.75959049	      1.92703785	      4.26279609	     22.02278606	     48.38673840	     12.05997377	      9.76437830	      7.18391805	      7.71254018	      3.33764939	      3.91586114	      4.12828616	     10.55245283	      5.27047062	     10.31975607	      9.10491799	      1.90566510	      7.13732617	      5.18723641	      3.69522245	      3.12402603	      5.20019157	      4.84800514	      2.81440237	      1.96229731	      4.63640868	      7.05057333	      5.28541862	     25.41332453	     16.09807288	      4.57518772	      3.30493266	      5.59956840	     14.28277401	      0.00000000	      0.00000000	      0.00000000	     19.41466295	      9.07203207	     43.23286523	     47.38596330	      4.23076837	      3.68585822	     11.18943502	      5.92311847	     15.90241028	      2.49010829	      7.89493923	      2.52802157	     31.40602970	     31.40602970	     11.53095668	     11.53095668	     29.08128823	     29.08128823	    100.46636797	     60.98708909	      4.91827667	     -3.34647487	      2.33161943	     39.89235171	   -100.46636797	    -60.98708909	     -4.91827667	      1.57360431	     -2.73744080	      1.35456117	      0.10617876	     -0.00021032	     -0.06232749	      0.02479640	     -0.00164817	      0.04224700	     -0.10617876	      0.00021032	      0.06232749	     -0.00023062	      0.00304412	     -0.00040239	   -913.05308972	   -378.53493194	    321.22147765	     -8.55602086	     22.21367954	      2.08087955	    913.05308972	    378.53493194	   -321.22147765	    136.19352990	    -16.01300825	    368.02822261	   -340.36912488	   -154.88420453	    -93.56149461	      5.07175463	    -11.80906008	      1.10723058	    340.36912488	    154.88420453	     93.56149461	    -41.52823542	      8.35601768	    137.23474700	      0.00000000	      0.00000000	    960.63831969	    604.00880117	     24.82972526	      9.67092508	      0.00000000	      0.00000000	      0.00000000	      0.00000000	      0.00000000	      0.00000000	      0.00000001	      0.00000000
      0.20839767	      9.74723216	      7.17220018	      7.69980458	      3.33243418	      3.91017897	      4.12103539	      0.00000000	    164.04744321	    179.51894220	    337.52551405	    122.82537798	      7.12554710	      5.17920646	      3.68924186	      3.11883784	      5.19078318	      3.49378575	      2.80997443	     92.97339774	      4.62883006	      7.03901830	      5.27660939	     25.39187618	     16.07367498	      4.56788145	      3.30141543	      5.59029297	    116.00152056	     41.03060391	     32.23786503	     55.54772381	      0.00000000	      0.00000000	      0.00000000	      0.00000000	      0.00000000	      0.00000000	     34.69398050	      1.88586631	      4.21834793	     21.87400044	     48.11181919	     11.97741789	      9.74723216	      7.17220018	      7.69980458	      3.33243418	      3.91017897	      4.12103539	     10.56511268	      5.26126830	     10.29984289	      9.09036434	      1.90270131	      7.12554710	      5.17920646	      3.68924186	      3.11883784	      5.19078318	      4.84218285	      2.80997443	      1.95919154	      4.62883006	      7.03901830	      5.27660939	     25.39187618	     16.07367498	      4.56788145	      3.30141543	      5.59029297	     14.25506098	      0.00000000	      0.00000000	      0.00000000	     19.38633604	      9.05795325	     43.14752984	     47.34846953	      4.21291668	      3.66975019	     11.16840532	      5.91116828	     15.87784481	      2.48634379	      7.88667674	      2.52561743	     31.35684461	     31.35684461	     11.51136232	     11.51136232	     29.06362071	     29.06362071	     98.78741487	     60.18449852	      5.30436813	     -3.49693631	      2.29630708	     39.20973116	    -98.78741487	    -60.18449852	     -5.30436813	      1.56992913	     -2.70975457	      1.36950152	      0.08422378	     -0.00158353	     -0.05366024	      0.02133392	     -0.00131826	      0.03352123	     -0.08422378	      0.00158353	      0.05366024	     -0.00018150	      0.00254164	     -0.00035702	   -916.86731655	   -377.61908913	    321.81593653	     -8.47236444	     22.27013724	      2.21090308	    916.86731655	    377.61908913	   -321.81593653	    136.38671315	    -16.05765668	    369.51225702	   -341.96653142	   -155.15917973	    -94.11848597	      5.06932058	    -11.87961945	      1.17556805	    341.96653142	    155.15917973	     94.11848597	    -41.75390659	      8.39654950	    137.85483364	      0.00000000	      0.00000000	    965.33388548	    607.82305018	     24.32966031	      9.43701674	      0.00000000	      0.00000000	      0.00000000	      0.00000000	      0.00000000	      0.00000000	      0.00000001	      0.00000000
